# AST/ASF file generated using VICON BodyLanguage
# -----------------------------------------------
:version 1.10
:name VICON
:units
  mass 1.0
  length 0.45
  angle deg
:documentation
   .ast/.asf automatically generated from VICON data using
   VICON BodyBuilder and BodyLanguage model FoxedUp or BRILLIANT.MOD
:root
   order TX TY TZ RX RY RZ
   axis XYZ
   position 0 0 0  
   orientation 0 0 0 
:bonedata
  begin
     id 1 
     name lhipjoint
     direction 0.690799 -0.707083 0.151096 
     length 2.54797 
     axis 0 0 0  XYZ
  end
  begin
     id 2 
     name lfemur
     direction 0.34202 -0.939693 0  
     length 7.21646  
     axis 0 0 20  XYZ
    dof rx ry rz
    limits (-160.0 20.0)
           (-70.0 70.0)
           (-60.0 70.0)
  end
  begin
     id 3 
     name ltibia
     direction 0.34202 -0.939693 0   
     length 8.16759   
     axis 0 0 20   XYZ
    dof rx
    limits (-10.0 170.0)
  end
  begin
     id 4 
     name lfoot
     direction 0.0487203 -0.133858 0.989802   
     length 1.93375   
     axis -90 7.62852e-016 20   XYZ
    dof rx rz
    limits (-45.0 90.0)
           (-70.0 20.0)
  end
  begin
     id 5 
     name ltoes
     direction 1.53453e-011 -4.21783e-011 1   
     length 0.979747   
     axis -90 7.62852e-016 20   XYZ
    dof rx
    limits (-90.0 20.0)
  end
  begin
     id 6 
     name rhipjoint
     direction -0.694693 -0.703425 0.150315   
     length 2.56122  
     axis 0 0 0  XYZ 
  end
  begin
     id 7 
     name rfemur
     direction -0.34202 -0.939693 0   
     length 7.36786   
     axis 0 0 -20   XYZ
    dof rx ry rz
    limits (-160.0 20.0)
           (-70.0 70.0)
           (-70.0 60.0)
  end
  begin
     id 8 
     name rtibia
     direction -0.34202 -0.939693 0   
     length 8.07288   
     axis 0 0 -20   XYZ
    dof rx
    limits (-10.0 170.0)
 end
 begin
     id 9 
     name rfoot
     direction -0.0428397 -0.117701 0.992125   
     length 1.88295  
     axis -90 -7.62852e-016 -20   XYZ
    dof rx rz
    limits (-45.0 90.0)
           (-20.0 70.0)
  end
  begin
     id 10 
     name rtoes
     direction -1.53456e-011 -4.2187e-011 1   
     length 0.955578   
     axis -90 -7.62852e-016 -20   XYZ
    dof rx
    limits (-90.0 20.0)
  end
  begin
     id 11 
     name lowerback
     direction 0.0288145 0.999398 -0.0193241   
     length 1.92149   
     axis 0 0 0   XYZ
    dof rx ry rz
    limits (-20.0 45.0)
           (-30.0 30.0)
           (-30.0 30.0)
  end
  begin
     id 12 
     name upperback
     direction 0.0233784 0.998099 0.0570278   
     length 1.90435   
     axis 0 0 0   XYZ
    dof rx ry rz
    limits (-20.0 45.0)
           (-30.0 30.0)
           (-30.0 30.0)
  end
  begin
     id 13 
     name thorax
     direction 0.0096694 0.997833 0.0650817   
     length 1.9111   
     axis 0 0 0   XYZ
    dof rx ry rz
    limits (-20.0 45.0)
           (-30.0 30.0)
           (-30.0 30.0)
  end
  begin
     id 14 
     name lowerneck
     direction 0.00516803 0.999916 0.0118722   
     length 1.74664   
     axis 0 0 0   XYZ
    dof rx ry rz
    limits (-20.0 45.0)
           (-30.0 30.0)
           (-30.0 30.0)
  end
  begin
     id 15 
     name upperneck
     direction -0.0510851 0.996117 -0.071696   
     length 1.68498   
     axis 0 0 0   XYZ
    dof rx ry rz
    limits (-20.0 45.0)
           (-30.0 30.0)
           (-30.0 30.0)
  end
  begin
     id 16
     name head
     direction -0.019188 0.999436 -0.0275702  
     length 1.83483  
     axis 0 0 0   XYZ
    dof rx ry rz
    limits (-20.0 45.0)
           (-30.0 30.0)
           (-30.0 30.0)
  end
  begin
     id 17 
     name lclavicle
     direction 0.967006 0.248456 -0.0562957  
     length 3.39395  
     axis 0 0 0   XYZ
    dof ry rz
    limits (-20.0 10.0)
           (0.0 20.0)
  end
  begin
     id 18 
     name lhumerus
     direction 1 -4.48962e-011 -5.62711e-019   
     length 5.24318   
     axis 180 -30 -90   XYZ
    dof rx ry rz
    limits (-60.0 90.0)
           (-90.0 90.0)
           (-90.0 90.0)
  end
  begin
     id 19
     name lradius
     direction 1 -4.48966e-011 7.90625e-027   
     length 2.98999   
     axis 180 -30 -90   XYZ
    dof rx
    limits (-10.0 170.0)
  end
  begin
     id 20
     name lwrist
     direction 1 -4.48959e-011 1.61068e-026   
     length 1.49499   
     axis -9.31229e-015 90 90   XYZ
    dof ry
    limits (-180.0 0.0)
 end
  begin
     id 21 
     name lhand
     direction 1 -4.49017e-011 3.22136e-026   
     length 0.726745   
     axis -2.0555e-014 90 90   XYZ
    dof rx rz
    limits (-90.0 90.0)
           (-45.0 45.0)
  end
  begin
     id 22 
     name lfingers
     direction 1 -4.4898e-011 6.44272e-026   
     length 0.58592   
     axis -4.11101e-014 90 90   XYZ
    dof rx
    limits (0.0 90.0)
  end
  begin
     id 23
     name lthumb
     direction 0.707107 -6.34922e-011 0.707107   
     length 0.841268   
     axis -90 45 2.85299e-015   XYZ
    dof rx rz
    limits (-45.0 45.0)
           (-45.0 45.0)
  end
  begin
     id 24 
     name rclavicle
     direction -0.972232 0.230238 0.0419005   
     length 3.40416  
     axis 0 0 0   XYZ 
    dof ry rz
    limits (-10.0 20.0)
           (-20.0 0.0)
  end
  begin
     id 25 
     name rhumerus
     direction -1 -4.48976e-011 2.48487e-027  
     length 5.37045   
     axis 180 30 90   XYZ
    dof rx ry rz
    limits (-90.0 60.0)
           (-90.0 90.0)
           (-90.0 90.0)
  end
  begin
     id 26 
     name rradius
     direction -1 -4.48942e-011 7.87951e-027   
     length 2.92792   
     axis 180 30 90   XYZ
    dof rx
    limits (-10.0 170.0)
  end
  begin
     id 27 
     name rwrist
     direction -1 -4.48969e-011 1.61068e-026   
     length 1.46396   
     axis -9.31229e-015 -90 -90   XYZ
    dof ry
    limits (-180.0 0.0)
  end
  begin
     id 28
     name rhand
     direction -1 -4.49043e-011 3.22136e-026   
     length 0.784497   
     axis -2.0555e-014 -90 -90   XYZ
    dof rx rz
    limits (-90.0 90.0)
           (-45.0 45.0)
  end
  begin
     id 29
     name rfingers
     direction -1 -4.48823e-011 6.44272e-026   
     length 0.632482   
     axis -4.11101e-014 -90 -90   XYZ
    dof rx
    limits (0.0 90.0)
  end
  begin
     id 30
     name rthumb
     direction -0.707107 -6.34923e-011 0.707107   
     length 0.908121   
     axis -90 -45 -2.85299e-015   XYZ
    dof rx rz
    limits (-45.0 45.0)
           (-45.0 45.0)
  end
:hierarchy
  begin
    root lhipjoint rhipjoint lowerback
    lhipjoint lfemur
    lfemur ltibia
    ltibia lfoot
    lfoot ltoes
    rhipjoint rfemur
    rfemur rtibia
    rtibia rfoot
    rfoot rtoes
    lowerback upperback
    upperback thorax
    thorax lowerneck lclavicle rclavicle
    lowerneck upperneck
    upperneck head
    lclavicle lhumerus
    lhumerus lradius
    lradius lwrist
    lwrist lhand lthumb
    lhand lfingers
    rclavicle rhumerus
    rhumerus rradius
    rradius rwrist
    rwrist rhand rthumb
    rhand rfingers
  end

#!OML:ASF E:\Style6\Style6.ASF
:FULLY-SPECIFIED
:DEGREES
1155
root -0.227421 18.1402 1.42746 12.5798 -16.4014 -14.4837
lowerback 0.671129 0.0438058 -6.91779
upperback -8.18088 -1.01173 -7.67105
thorax -9.14821 -0.372065 -4.25225
lowerneck -7.2721 1.02658 0.719697
upperneck 9.66222 1.57965 -2.66147
head 4.54562 0.663616 -0.933806
rclavicle -2.54444e-014 9.22361e-014
rhumerus -1.37044 -36.2099 18.7344
rradius 55.4836
rwrist -3.2841
rhand -0.234843 1.9126
rfingers 7.12502
rthumb 25.3654 -26.4203
lclavicle -2.54444e-014 9.22361e-014
lhumerus -32.2219 26.3106 4.00806
lradius 57.7733
lwrist 20.1546
lhand -18.1602 26.6646
lfingers 7.12502
lthumb 8.11573 56.4888
rfemur -6.30361 39.4537 29.8496
rtibia 2.98177e-014
rfoot -0.558019 -26.855
rtoes -3.17814
lfemur -5.08017 -38.7714 -7.60943
ltibia 23.5803
lfoot -51.6587 38.8396
ltoes 36.452
1156
root -0.216383 18.1438 1.43252 12.5268 -16.3675 -14.3292
lowerback 0.708061 0.0654074 -6.94755
upperback -8.13632 -0.985872 -7.70076
thorax -9.12064 -0.358881 -4.26865
lowerneck -7.2881 1.02444 0.766593
upperneck 9.63993 1.58138 -2.75973
head 4.5429 0.661219 -0.975523
rclavicle -9.54166e-015 6.04305e-014
rhumerus -1.51173 -36.3596 18.8414
rradius 55.4412
rwrist -3.16593
rhand -0.131909 1.98609
rfingers 7.12502
rthumb 25.464 -26.3328
lclavicle -9.54166e-015 6.04305e-014
lhumerus -32.2316 26.2925 4.07593
lradius 57.8186
lwrist 20.1662
lhand -18.0199 26.6759
lfingers 7.12502
lthumb 8.25117 56.4948
rfemur -6.2786 39.3098 29.6773
rtibia 1.82882e-014
rfoot -0.517478 -26.7267
rtoes -3.5292
lfemur -5.03081 -38.9622 -7.83541
ltibia 23.5348
lfoot -51.9794 38.5869
ltoes 36.9461
1157
root -0.20664 18.146 1.43611 12.5609 -16.3123 -14.2328
lowerback 0.655826 0.0887207 -6.93102
upperback -8.1026 -0.943414 -7.71273
thorax -9.05086 -0.340362 -4.29177
lowerneck -7.28598 0.999364 0.740343
upperneck 9.55885 1.55021 -2.77301
head 4.5121 0.644926 -0.976781
rclavicle -2.38542e-014 3.81667e-014
rhumerus -1.66098 -36.5061 18.939
rradius 55.4563
rwrist -3.15469
rhand -0.0508433 1.94915
rfingers 7.12502
rthumb 25.5417 -26.3586
lclavicle -2.38542e-014 3.81667e-014
lhumerus -32.1879 26.3333 4.1997
lradius 57.868
lwrist 20.2033
lhand -17.9163 26.7308
lfingers 7.12502
lthumb 8.35112 56.5457
rfemur -6.35139 39.1694 29.5097
rtibia 1.78906e-014
rfoot -0.620122 -26.5943
rtoes -3.30895
lfemur -5.09535 -38.9127 -7.88345
ltibia 23.4333
lfoot -51.8699 38.3723
ltoes 37.1555
1158
root -0.197479 18.1489 1.43891 12.5957 -16.2386 -14.1145
lowerback 0.65881 0.0916356 -6.94626
upperback -8.11704 -0.942726 -7.72091
thorax -9.06921 -0.338982 -4.2932
lowerneck -7.28149 0.993625 0.814547
upperneck 9.57259 1.54337 -2.85841
head 4.51829 0.639876 -1.01979
rclavicle -6.67916e-014 -6.36111e-015
rhumerus -1.83307 -36.4784 19.0829
rradius 55.5269
rwrist -3.31908
rhand -0.0206323 1.86335
rfingers 7.12502
rthumb 25.5706 -26.4402
lclavicle -6.67916e-014 -6.36111e-015
lhumerus -32.1452 26.3168 4.27574
lradius 57.8338
lwrist 20.178
lhand -18.0007 26.8157
lfingers 7.12502
lthumb 8.2697 56.6338
rfemur -6.44895 39.0071 29.314
rtibia 1.03368e-014
rfoot -0.533457 -26.4866
rtoes -3.74506
lfemur -5.1946 -38.8612 -7.9302
ltibia 23.32
lfoot -51.5272 38.4865
ltoes 36.9279
1159
root -0.18789 18.1537 1.43547 12.6388 -16.0368 -13.8487
lowerback 0.764846 0.0361969 -7.13172
upperback -8.1817 -1.05051 -7.74293
thorax -9.20915 -0.377528 -4.21069
lowerneck -7.17675 0.979983 0.883361
upperneck 9.56418 1.52699 -2.95331
head 4.4958 0.630354 -1.06554
rclavicle -2.54444e-014 -6.36111e-015
rhumerus -1.94355 -36.3816 19.1853
rradius 55.5646
rwrist -3.34937
rhand 0.00138135 2.01811
rfingers 7.12502
rthumb 25.5917 -26.2825
lclavicle -2.54444e-014 -6.36111e-015
lhumerus -32.1189 26.3026 4.34337
lradius 57.7784
lwrist 20.0684
lhand -17.9753 26.8643
lfingers 7.12502
lthumb 8.29415 56.6814
rfemur -6.64689 38.6974 28.9396
rtibia -4.77083e-015
rfoot -0.367843 -26.3823
rtoes -4.56081
lfemur -5.46771 -38.9904 -7.97894
ltibia 23.2146
lfoot -51.3283 38.552
ltoes 36.8001
1160
root -0.179115 18.1568 1.42871 12.7722 -15.756 -13.7217
lowerback 0.884352 -0.0471631 -7.18856
upperback -8.2622 -1.18891 -7.72773
thorax -9.37397 -0.43798 -4.15687
lowerneck -7.03668 0.956732 0.899719
upperneck 9.48082 1.49257 -2.96018
head 4.43646 0.615436 -1.07232
rclavicle -6.36111e-015 -1.27222e-014
rhumerus -1.90923 -36.3569 19.1465
rradius 55.5507
rwrist -3.24887
rhand 0.0241404 2.08682
rfingers 7.12502
rthumb 25.6135 -26.2106
lclavicle -6.36111e-015 -1.27222e-014
lhumerus -32.127 26.2234 4.36838
lradius 57.7677
lwrist 20.1363
lhand -18.0775 26.7224
lfingers 7.12502
lthumb 8.19558 56.5435
rfemur -6.91764 38.3482 28.6869
rtibia 1.47101e-014
rfoot -0.181299 -26.2729
rtoes -5.26435
lfemur -5.86687 -38.9725 -7.75822
ltibia 23.1105
lfoot -50.8197 38.624
ltoes 36.64
1161
root -0.169804 18.1587 1.42947 12.8637 -15.5898 -13.6376
lowerback 0.915907 -0.0791926 -7.17525
upperback -8.30888 -1.23882 -7.71201
thorax -9.44607 -0.461448 -4.14565
lowerneck -6.79467 0.933595 0.857805
upperneck 9.25617 1.46163 -2.97078
head 4.30495 0.601814 -1.06857
rclavicle 5.92378e-014 -1.33583e-013
rhumerus -1.83114 -36.4359 19.108
rradius 55.4816
rwrist -3.15732
rhand 0.0180397 1.90282
rfingers 7.12502
rthumb 25.6077 -26.3955
lclavicle 5.92378e-014 -1.33583e-013
lhumerus -32.1388 26.2217 4.40007
lradius 57.7466
lwrist 20.162
lhand -18.1543 26.6329
lfingers 7.12502
lthumb 8.12146 56.4569
rfemur -7.07991 38.1095 28.5087
rtibia -1.47101e-014
rfoot -0.149047 -26.1433
rtoes -5.23325
lfemur -6.08404 -38.9491 -7.65075
ltibia 22.9863
lfoot -50.4113 38.763
ltoes 36.4793
1162
root -0.161207 18.1616 1.43577 12.8983 -15.4905 -13.5904
lowerback 0.895687 -0.074921 -7.09264
upperback -8.30536 -1.22461 -7.71474
thorax -9.42992 -0.460882 -4.1953
lowerneck -6.64958 0.909698 0.779535
upperneck 9.10952 1.42827 -2.91171
head 4.22023 0.587802 -1.03539
rclavicle 5.725e-014 7.31528e-014
rhumerus -1.81857 -36.5322 19.1194
rradius 55.3677
rwrist -2.99063
rhand 0.0225573 1.82679
rfingers 7.12502
rthumb 25.612 -26.4709
lclavicle 5.725e-014 7.31528e-014
lhumerus -32.1444 26.2626 4.44916
lradius 57.7322
lwrist 20.0188
lhand -17.9736 26.5397
lfingers 7.12502
lthumb 8.29581 56.3568
rfemur -7.11449 37.9346 28.4322
rtibia -1.59028e-015
rfoot -0.0915248 -26.0708
rtoes -5.3343
lfemur -6.14679 -39.0016 -7.64416
ltibia 22.8977
lfoot -50.2429 38.9123
ltoes 36.3871
1163
root -0.154528 18.1642 1.44077 12.8988 -15.4598 -13.476
lowerback 0.866338 -0.0740328 -7.10732
upperback -8.26523 -1.21781 -7.74232
thorax -9.36801 -0.458524 -4.21538
lowerneck -6.74599 0.918992 0.789794
upperneck 9.18617 1.43744 -2.87003
head 4.26699 0.593408 -1.02313
rclavicle -3.4191e-014 5.725e-014
rhumerus -1.77006 -36.6514 19.0486
rradius 55.2279
rwrist -2.8306
rhand -0.00143907 2.08083
rfingers 7.12502
rthumb 25.589 -26.2201
lclavicle -3.4191e-014 5.725e-014
lhumerus -32.1738 26.2928 4.46298
lradius 57.7597
lwrist 19.8965
lhand -17.8046 26.5502
lfingers 7.12502
lthumb 8.45895 56.3608
rfemur -7.13335 37.8082 28.2881
rtibia 2.90226e-014
rfoot -0.0785401 -25.9947
rtoes -5.6674
lfemur -6.14348 -39.0871 -7.77211
ltibia 22.8176
lfoot -50.1838 39.0885
ltoes 36.1868
1164
root -0.147459 18.1652 1.44324 12.892 -15.4121 -13.4399
lowerback 0.913808 -0.0829309 -7.05334
upperback -8.22503 -1.22761 -7.74451
thorax -9.35145 -0.467608 -4.2454
lowerneck -6.87585 0.945225 0.752633
upperneck 9.27564 1.46729 -2.75499
head 4.32406 0.610826 -0.976309
rclavicle 3.97569e-015 5.725e-014
rhumerus -1.7206 -36.7689 18.9442
rradius 55.2066
rwrist -2.74555
rhand -0.0824185 2.18983
rfingers 7.12502
rthumb 25.5114 -26.1222
lclavicle 3.97569e-015 5.725e-014
lhumerus -32.2038 26.2806 4.46701
lradius 57.7668
lwrist 19.9206
lhand -18.041 26.6991
lfingers 7.12502
lthumb 8.23078 56.5188
rfemur -7.11936 37.6788 28.2528
rtibia -1.27222e-014
rfoot 0.0196709 -25.9208
rtoes -6.10043
lfemur -6.1229 -39.0777 -7.81544
ltibia 22.7362
lfoot -50.1258 39.0784
ltoes 36.1251
1165
root -0.14074 18.1665 1.44469 12.9471 -15.305 -13.3884
lowerback 0.912128 -0.101555 -7.04178
upperback -8.19161 -1.24493 -7.7209
thorax -9.312 -0.475818 -4.22259
lowerneck -7.02652 0.967066 0.708423
upperneck 9.32677 1.49966 -2.72332
head 4.37277 0.625285 -0.955952
rclavicle 3.73715e-014 -2.22639e-014
rhumerus -1.70478 -36.9037 18.946
rradius 55.2172
rwrist -2.62786
rhand 0.0115421 2.03123
rfingers 7.12502
rthumb 25.6014 -26.2679
lclavicle 3.73715e-014 -2.22639e-014
lhumerus -32.1986 26.4309 4.52498
lradius 57.7128
lwrist 19.8717
lhand -18.1834 26.7313
lfingers 7.12502
lthumb 8.09329 56.5563
rfemur -7.2073 37.4971 28.1456
rtibia -1.03368e-014
rfoot -0.306542 -25.8635
rtoes -4.72454
lfemur -6.26989 -39.0159 -7.74825
ltibia 22.6764
lfoot -49.7425 39.208
ltoes 35.8086
1166
root -0.135708 18.1696 1.44658 12.987 -15.2477 -13.3304
lowerback 0.938101 -0.104359 -7.09297
upperback -8.19689 -1.25179 -7.68102
thorax -9.3316 -0.472742 -4.15053
lowerneck -7.06953 0.960296 0.660523
upperneck 9.36247 1.49684 -2.7236
head 4.3938 0.621527 -0.947794
rclavicle -4.8901e-014 3.18055e-014
rhumerus -1.64665 -36.906 18.9444
rradius 55.2188
rwrist -2.54146
rhand 0.115547 2.00636
rfingers 7.12502
rthumb 25.701 -26.2784
lclavicle -4.8901e-014 3.18055e-014
lhumerus -32.2391 26.5589 4.56959
lradius 57.6545
lwrist 19.669
lhand -18.155 26.682
lfingers 7.12502
lthumb 8.12071 56.5059
rfemur -7.2781 37.3604 28.0427
rtibia 1.23246e-014
rfoot -0.269973 -25.7557
rtoes -4.84337
lfemur -6.37794 -39.057 -7.74453
ltibia 22.66
lfoot -49.6927 39.2085
ltoes 35.7825
1167
root -0.130792 18.1722 1.45083 12.9922 -15.2007 -13.366
lowerback 0.987265 -0.0929596 -7.03587
upperback -8.18838 -1.2338 -7.63576
thorax -9.34902 -0.465406 -4.13448
lowerneck -7.02421 0.923248 0.680316
upperneck 9.38224 1.45011 -2.77104
head 4.3917 0.597004 -0.970413
rclavicle -3.02153e-014 1.59028e-014
rhumerus -1.56544 -36.84 18.9171
rradius 55.1613
rwrist -2.51245
rhand 0.0427823 2.01747
rfingers 7.12502
rthumb 25.6314 -26.2774
lclavicle -3.02153e-014 1.59028e-014
lhumerus -32.2601 26.4912 4.62459
lradius 57.6245
lwrist 19.6954
lhand -18.3039 26.6941
lfingers 7.12502
lthumb 7.97702 56.5236
rfemur -7.24848 37.2467 28.0892
rtibia 2.90226e-014
rfoot -0.184682 -25.6301
rtoes -5.15654
lfemur -6.34651 -39.1694 -7.74163
ltibia 22.6468
lfoot -50.0587 38.8439
ltoes 36.406
1168
root -0.125252 18.1731 1.45271 13.0027 -15.1517 -13.4521
lowerback 1.08533 -0.0837664 -6.90699
upperback -8.20976 -1.22334 -7.58228
thorax -9.42952 -0.466156 -4.15094
lowerneck -6.83574 0.922155 0.738713
upperneck 9.31411 1.44941 -2.85981
head 4.3308 0.596256 -1.01063
rclavicle -9.14409e-015 1.90833e-014
rhumerus -1.51747 -36.6602 18.9283
rradius 55.165
rwrist -2.55874
rhand -0.162293 1.96428
rfingers 7.12502
rthumb 25.4349 -26.3587
lclavicle -9.14409e-015 1.90833e-014
lhumerus -32.3074 26.449 4.60638
lradius 57.5835
lwrist 19.6879
lhand -18.2182 26.8857
lfingers 7.12502
lthumb 8.05979 56.712
rfemur -7.2317 37.1406 28.1876
rtibia 8.34896e-015
rfoot -0.134591 -25.5514
rtoes -5.0398
lfemur -6.30636 -39.3041 -7.68183
ltibia 22.6113
lfoot -50.3226 38.655
ltoes 36.7597
1169
root -0.120792 18.1748 1.45539 13.0247 -15.1274 -13.4586
lowerback 1.13288 -0.0782554 -6.86106
upperback -8.21041 -1.21542 -7.5441
thorax -9.45691 -0.463309 -4.13607
lowerneck -6.78049 0.931726 0.687511
upperneck 9.23323 1.46752 -2.87701
head 4.29044 0.603545 -1.00566
rclavicle 7.55382e-015 -6.67916e-014
rhumerus -1.44459 -36.6071 18.9107
rradius 55.1698
rwrist -2.55855
rhand -0.0867747 1.9688
rfingers 7.12502
rthumb 25.5073 -26.3439
lclavicle 7.55382e-015 -6.67916e-014
lhumerus -32.3663 26.4298 4.60397
lradius 57.5089
lwrist 19.6636
lhand -17.9512 26.7416
lfingers 7.12502
lthumb 8.31744 56.5579
rfemur -7.24437 37.0457 28.1804
rtibia 1.47101e-014
rfoot 0.0230459 -25.4116
rtoes -5.74268
lfemur -6.29789 -39.4937 -7.69015
ltibia 22.5697
lfoot -50.6553 38.504
ltoes 37.0826
